<svg height="512" viewBox="0 0 60 60" width="512" xmlns="http://www.w3.org/2000/svg">
<g id="038---Global-Language" fill="none"><g id="Layer_3" transform="translate(1 1)">
<path id="Shape" d="m54 29c0 14.88-12.91 26-26.5 25-13.1671239-.8340136-23.41965194-11.7564891-23.41965194-24.95s10.25252804-24.11598643 23.41965194-24.95c13.63-1.1 26.5 10.04 26.5 24.9z" fill="#7facfa"/><path id="Shape" d="m51 29c.0238557 13.2419313-10.2819029 24.2055043-23.5 25-13.1671239-.8340136-23.41965194-11.7564891-23.41965194-24.95s10.25252804-24.11598643 23.41965194-24.95c13.1795959.79217098 23.4709721 11.6966505 23.5 24.9z" fill="#a4c2f7"/><path id="Shape" d="m53.25 35.06c-2.6702622 10.7355367-12.0786802 18.4396197-23.13 18.94v-.32c9.8469147-1.6430017 17.7724164-8.9866709 20.16-18.68 3.11 0 2.62 0 2.97.06z" fill="#cad9fc"/><path id="Shape" d="m50.28 34.9999951c-2.3979476 9.6816479-10.3213105 17.0115446-20.16 18.6500049v-1.15c.0053243-.9264138-.3589657-1.8167121-1.0121703-2.4736707-.6532045-.6569586-1.5414006-1.0263446-2.4678297-1.0263293h-1.16c-1.4276853.0125018-2.7198503-.8434343-3.2652313-2.1629044s-.2346378-2.8379416.7852313-3.8370956c.6537336-.6482016 1.5394214-1.0082373 2.46-1h5.8c1.0694935.0126598 2.0833224-.4757541 2.74-1.32l2.43-5.16c.5421132-.3408 1.169664-.5210908 1.81-.52z" fill="#e8edfc"/><path id="Shape" d="m53.91 27h-3c-.491242-6.3483454-3.4015657-12.2656457-8.13-16.53.26-.88 0-1.19.33-2.11 6.2373138 4.2569418 10.208918 11.1116364 10.8 18.64z" fill="#cad9fc"/><g fill="#e8edfc"><path id="Shape" d="m50.91 27h-9.15c-.9264291.0000153-1.8146252-.3693707-2.4678297-1.0263293-.6532046-.6569586-1.0174946-1.5472569-1.0121703-2.4736707.0000314-1.925213-1.5548184-3.4889988-3.48-3.5h-1.16c-1.9329966 0-3.5-1.5670034-3.5-3.5s1.5670034-3.5 3.5-3.5h5.8c1.5554551.0032935 2.9219178-1.0317815 3.34-2.53 4.7284343 4.2643543 7.638758 10.1816546 8.13 16.53z"/><path id="Shape" d="m27.84 33.5c.0053243.9264138-.3589657 1.8167121-1.0121703 2.4736707-.6532045.6569586-1.5414006 1.0263446-2.4678297 1.0263293h-19c-2.73892214-8.1127551-1.13529333-17.0628906 4.25-23.72l11.39.72 2 7c-2.32 2.35-1.37 2-7.92 2-1.9329966.0000001-3.4999999 1.5670034-3.4999999 3.5s1.5670033 3.4999999 3.4999999 3.5h9.28c.9264291-.0000153 1.8146252.3693707 2.4678297 1.0263293.6532046.6569586 1.0174946 1.5472569 1.0121703 2.4736707z"/><path id="Shape" d="m24 2v21l-8-5h-14c-1.1045695 0-2-.8954305-2-2v-14c0-1.1045695.8954305-2 2-2h20c1.1045695 0 2 .8954305 2 2z"/></g><path id="Shape" d="m58 42v14c0 1.1045695-.8954305 2-2 2h-20c-1.1045695 0-2-.8954305-2-2v-21l8 5h14c1.1045695 0 2 .8954305 2 2z" fill="#cad9fc"/><path id="Shape" d="m55 42v14c0 1.1045695-.8954305 2-2 2h-17c-1.1045695 0-2-.8954305-2-2v-19.12l5 3.12h14c1.1045695 0 2 .8954305 2 2z" fill="#e8edfc"/></g><g id="Layer_3_copy" fill="#fff" transform="translate(1 1)"><path id="Shape" d="m8.31 37c-2.10905054-6.2489598-1.663355-13.0781657 1.24-19h-3c-2.903355 5.9218343-3.34905054 12.7510402-1.24 19 3.62413153 10.6641549 13.9035143 17.6124455 25.15 17-10.141743-.6660998-18.8837483-7.3755396-22.15-17z"/><path id="Shape" d="m3 16v-14c0-1.1045695.8954305-2 2-2h-3c-1.1045695 0-2 .8954305-2 2v14c0 1.1045695.8954305 2 2 2h3c-1.1045695 0-2-.8954305-2-2z"/></g><path id="Shape" d="m10.84 44.44-1.6 1.2c-1.67626407-2.2169358-2.98622372-4.6883029-3.88-7.32l1.9-.64c.81974346 2.432179 2.02879503 4.7151926 3.58 6.76z" fill="#fff"/><g fill="#428dff"><path id="Shape" d="m7.91 42.67c-.55228475 0-1-.4477153-1-1s.44771525-1 1-1 1 .4477153 1 1-.44771525 1-1 1z"/><path id="Shape" d="m57 40h-3c3.3435319-8.0244765 2.4554179-17.1890397-2.3666923-24.4222051-4.8221103-7.23316538-12.9401248-11.5777949-21.6333077-11.5777949-1.3394245-.00237833-2.6769357.10127878-4 .31v-1.31c0-1.65685425-1.3431458-3-3-3h-20c-1.65685425 0-3 1.34314575-3 3v14c0 1.6568542 1.34314575 3 3 3h3c-2.42495154 5.8276397-2.65236482 12.3373449-.64 18.32.15190565.3964684.52572657.6640454.95.68h19.05c2.4852813-.0000001 4.4999999-2.0147187 4.4999999-4.5s-2.0147186-4.4999999-4.4999999-4.5h-9.28c-.6595893.0010628-1.2912736-.2660494-1.75-.74-.4689278-.4654232-.7318476-1.099312-.73-1.76-.0026575-.6603907.2571358-1.2947886.7222271-1.7636307.4650914-.4688421 1.0973822-.7337225 1.7577729-.7363693h4.64c.8343504-.0045018 1.6511732-.2398576 2.36-.68.0827034-.0594755.1567442-.1301508.22-.21l1.17.74c.3085729.1928596.6975525.2028789 1.0156449.0261609s.5150842-.512277.5143551-.8761609v-17.66c1.3215984-.22405628 2.6595454-.33778178 4-.34 4.6126851-.00842316 9.1286751 1.32205698 13 3.83-.0398192.2211135-.0598983.4453297-.06.67.0026715.6638566-.2598627 1.3012947-.729284 1.770716s-1.1068594.7319555-1.770716.729284h-5.8c-2.4852814 0-4.5 2.0147186-4.5 4.5s2.0147186 4.5 4.5 4.5h1.16c.6595893-.0010628 1.2912736.2660494 1.75.74.4689278.4654232.7318476 1.099312.73 1.76-.0000245 2.4774918 2.0025327 4.4889889 4.48 4.5h11.24v1c-.0038828 1.6810071-.184882 3.3569263-.54 5h-14.22c-.832491-.0045014-1.6485511.2316351-2.35.68-.0760345.0526792-.1434934.1167652-.2.19l-1.16-.72c-.3085729-.1928596-.6975525-.2028789-1.0156449-.0261609s-.5150842.512277-.5143551.8761609v5.28c-.454779.4591717-1.0737341.7182692-1.72.72h-5.8-.48c-2.4852813.1270256-4.3970253 2.2447187-4.2699998 4.73s2.2447185 4.3970254 4.7299998 4.27h1.16c.6603907.0026468 1.2926815.2675272 1.7577729.7363693.4650913.4688421.7248846 1.10324.7222271 1.7636307v.5c-7.5712367.0173466-14.7108874-3.5228536-19.28-9.56-.3269805-.4325776-.93914607-.5257332-1.38-.21-.21819585.1562641-.36442206.3936756-.40579637.6588474-.04137432.2651717.02557625.5358449.18579637.7511526 5.1448967 6.8699532 13.3559142 10.7489383 21.93 10.36.9554468-.0449376 1.9072356-.1484655 2.85-.31v1.31c0 1.6568542 1.3431458 3 3 3h20c1.6568542 0 3-1.3431458 3-3v-14c0-1.6568542-1.3431458-3-3-3zm-36.28-17h-4.64c-2.4852814 0-4.5 2.0147186-4.5 4.5s2.0147186 4.5 4.5 4.5h9.28c1.3807119 0 2.5 1.1192881 2.5 2.5s-1.1192881 2.5-2.5 2.5h-18.3c-1.68618238-5.467175-1.35259821-11.3581294.94-16.6.05049886-.1274391.0775993-.2629413.08-.4h8.63l4.65 2.91c-.208034.0599731-.423494.0902721-.64.09zm3.28-.8-6.47-4.05c-.1591413-.098629-.3427748-.1506008-.53-.15h-14c-.55228475 0-1-.4477153-1-1v-14c0-.55228475.44771525-1 1-1h20c.5522847 0 1 .44771525 1 1zm16.28 2.3c.0026551-1.1908229-.4678526-2.3339273-1.3080162-3.1778416-.8401636-.8439144-1.9811608-1.3195092-3.1719838-1.3221584h-1.16c-.6603907-.0026468-1.2926815-.2675272-1.7577729-.7363693-.4650913-.4688421-.7248846-1.10324-.7222271-1.7636307-.0018476-.660688.2610722-1.2945768.73-1.76.4587264-.4739506 1.0904107-.7410628 1.75-.74h5.8c2.2227759-.008353 4.101709-1.6486915 4.41-3.85 4.9664981 3.8879963 8.1857482 9.5891264 8.95 15.85h-11c-.6673089.008046-1.3099188-.2521133-1.7836881-.7221224-.4737692-.4700092-.7390406-1.1105258-.7363119-1.7778776zm-1 12.5 13.7-.0000021c-.75 2.4700021-1 2.5100021-1 3.0000021h-8.69l-4.67-2.91c.2011947-.0599712.4100577-.09029.62-.09zm-7.16 16.9v-.4c.0000245-2.4774918-2.0025327-4.4889889-4.48-4.5h-1.16c-.6603907-.0026468-1.2926815-.2675272-1.7577729-.7363693-.4650913-.4688421-.7248846-1.10324-.7222271-1.7636307-.0040537-1.2732484.9458716-2.3478246 2.21-2.5h.27 5.8c.591104.0008613 1.1762385-.1182068 1.72-.35v10c-.59.11-1.21.2-1.88.25zm25.88 3.1c0 .5522847-.4477153 1-1 1h-20c-.5522847 0-1-.4477153-1-1v-19.2l6.47 4.05c.1591413.098629.3427748.1506008.53.15h14c.5522847 0 1 .4477153 1 1z"/><path id="Shape" d="m6 6h1c.55228475 0 1-.44771525 1-1s-.44771525-1-1-1h-1c-.55228475 0-1 .44771525-1 1s.44771525 1 1 1z"/><path id="Shape" d="m20 4h-9c-.5522847 0-1 .44771525-1 1s.4477153 1 1 1h9c.5522847 0 1-.44771525 1-1s-.4477153-1-1-1z"/><path id="Shape" d="m6 11h10c.5522847 0 1-.4477153 1-1 0-.55228475-.4477153-1-1-1h-10c-.55228475 0-1 .44771525-1 1 0 .5522847.44771525 1 1 1z"/><path id="Shape" d="m20 14h-14c-.55228475 0-1 .4477153-1 1s.44771525 1 1 1h14c.5522847 0 1-.4477153 1-1s-.4477153-1-1-1z"/>
<path id="Shape" d="m55 49h-16c-.5522847 0-1 .4477153-1 1s.4477153 1 1 1h16c.5522847 0 1-.4477153 1-1s-.4477153-1-1-1z"/>
<path id="Shape" d="m41 53h-2c-.5522847 0-1 .4477153-1 1s.4477153 1 1 1h2c.5522847 0 1-.4477153 1-1s-.4477153-1-1-1z"/><path id="Shape" d="m55 53h-10c-.5522847 0-1 .4477153-1 1s.4477153 1 1 1h10c.5522847 0 1-.4477153 1-1s-.4477153-1-1-1z"/><path id="Shape" d="m39 47h10c.5522847 0 1-.4477153 1-1s-.4477153-1-1-1h-10c-.5522847 0-1 .4477153-1 1s.4477153 1 1 1z"/>
</g></g></svg>